<?xml version="1.0" encoding="UTF-8" standalone="no"?>
<!DOCTYPE svg PUBLIC "-//W3C//DTD SVG 1.1//EN" "http://www.w3.org/Graphics/SVG/1.1/DTD/svg11.dtd">
<svg width="100%" height="100%" viewBox="0 0 650 1040" version="1.1" xmlns="http://www.w3.org/2000/svg" xmlns:xlink="http://www.w3.org/1999/xlink" xml:space="preserve" xmlns:serif="http://www.serif.com/" style="fill-rule:evenodd;clip-rule:evenodd;stroke-linejoin:round;stroke-miterlimit:2;">
    <g id="Logo-green" serif:id="Logo green" transform="matrix(1,0,0,1,9.38938,82.4033)">
        <path d="M291.764,95.262C290.783,94.531 289.589,94.141 288.365,94.152C288.364,94.152 288.364,94.152 288.364,94.152L288.364,92.652L294.514,92.652C297.914,92.652 301.764,92.627 306.064,92.577C310.364,92.527 314.664,92.502 318.964,92.502L329.464,92.502C336.164,92.502 342.114,92.702 347.314,93.102C352.514,93.502 357.264,94.852 361.564,97.152C365.964,99.452 369.514,102.577 372.214,106.527C374.914,110.477 376.264,115.452 376.264,121.452C376.264,125.152 375.589,128.477 374.239,131.427C372.889,134.377 371.089,136.977 368.839,139.227C366.589,141.477 363.964,143.402 360.964,145.002C357.964,146.602 354.814,147.952 351.514,149.052L351.514,149.502C353.214,150.402 354.864,151.702 356.464,153.402C358.064,155.102 359.614,157.002 361.114,159.102C363.714,162.902 366.539,167.002 369.589,171.402C372.639,175.802 375.364,179.702 377.764,183.102C381.464,188.302 385.064,192.102 388.564,194.502C392.064,196.902 396.164,198.452 400.864,199.152L400.864,200.652L370.114,200.652C369.214,199.752 368.564,199.077 368.164,198.627C367.764,198.177 367.314,197.652 366.814,197.052C366.314,196.452 365.689,195.577 364.939,194.427C364.189,193.277 363.014,191.552 361.414,189.252C359.514,186.452 357.839,183.927 356.389,181.677C354.939,179.427 353.464,177.202 351.964,175.002C350.464,172.802 348.839,170.577 347.089,168.327C345.339,166.077 343.264,163.552 340.864,160.752C338.864,158.452 334.353,155.254 330.942,154.043C326.691,152.533 320.429,149.424 305.071,150.582C305.046,149.593 305.029,148.603 305.021,147.614C305.697,147.571 311.664,147.745 317.853,147.766C322.835,147.783 327.96,147.701 330.589,147.327C334.121,146.824 337.564,146.252 340.864,145.152C344.064,144.152 346.814,142.802 349.114,141.102C351.414,139.402 353.289,137.477 354.739,135.327C356.189,133.177 357.264,130.852 357.964,128.352C358.664,125.852 359.014,123.252 359.014,120.552C359.014,115.552 357.764,111.102 355.264,107.202C352.764,103.302 347.813,99.248 344.314,97.902C340.581,96.465 339.945,96.289 335.909,95.735C332.087,95.211 325.516,95.178 320.314,95.127C313.983,95.064 297.378,95.209 291.764,95.262ZM327.89,178.954L320.697,201.141L229.964,201.141L229.964,199.641C232.464,199.241 234.939,198.591 237.389,197.691C239.839,196.791 241.764,195.541 243.164,193.941C243.664,193.341 244.089,192.466 244.439,191.316C244.789,190.166 245.064,188.841 245.264,187.341C245.464,185.841 245.639,184.266 245.789,182.616C245.939,180.966 246.014,179.341 246.014,177.741C246.014,176.341 246.039,174.441 246.089,172.041C246.139,169.641 246.189,167.016 246.239,164.166C246.289,161.316 246.314,158.391 246.314,155.391L246.314,112.341C246.314,110.541 246.239,108.866 246.089,107.316C245.939,105.766 245.714,104.391 245.414,103.191C245.114,101.991 244.664,101.041 244.064,100.341C242.664,98.641 240.789,97.341 238.439,96.441C236.089,95.541 233.614,94.941 231.014,94.641L231.014,93.141L278.864,93.141L278.864,94.641C277.564,94.841 276.014,95.141 274.214,95.541C272.414,95.941 270.714,96.591 269.114,97.491C267.514,98.391 266.139,99.666 264.989,101.316C263.839,102.966 263.214,105.141 263.114,107.841C263.014,111.341 262.939,114.541 262.889,117.441C262.839,120.341 262.789,123.191 262.739,125.991C262.689,128.791 262.664,131.691 262.664,134.691L262.664,161.991C262.664,164.591 262.689,167.266 262.739,170.016C262.789,172.766 262.814,175.841 262.814,179.241C262.914,182.441 263.039,185.491 263.189,188.391C263.339,191.291 263.864,193.441 264.764,194.841C265.164,195.341 265.964,195.841 267.164,196.341C268.364,196.841 269.814,197.266 271.514,197.616C273.214,197.966 275.064,198.266 277.064,198.516C279.064,198.766 281.064,198.891 283.064,198.891C283.864,198.891 285.139,198.866 286.889,198.816C288.639,198.766 290.564,198.666 292.664,198.516C294.764,198.366 296.914,198.141 299.114,197.841C301.314,197.541 303.264,197.141 304.964,196.641C308.964,195.541 312.905,193.38 314.939,192.291C316.972,191.202 318.719,189.947 320.177,188.526C321.635,187.104 322.863,185.562 323.861,183.898C324.859,182.235 325.818,180.496 326.739,178.681L327.89,178.954Z" style="fill:url(#_Linear1);"/>
    </g>
    <defs>
        <linearGradient id="_Linear1" x1="0" y1="0" x2="1" y2="0" gradientUnits="userSpaceOnUse" gradientTransform="matrix(171.746,108,-68.6542,109.177,229.964,93.141)"><stop offset="0" style="stop-color:rgb(221,184,110);stop-opacity:1"/><stop offset="0.2" style="stop-color:rgb(187,137,61);stop-opacity:1"/><stop offset="0.5" style="stop-color:rgb(126,87,47);stop-opacity:1"/><stop offset="0.8" style="stop-color:rgb(204,169,98);stop-opacity:1"/><stop offset="0.9" style="stop-color:rgb(221,184,110);stop-opacity:1"/><stop offset="1" style="stop-color:rgb(221,184,110);stop-opacity:1"/></linearGradient>
    </defs>
</svg>
